<svg viewBox="-10 0 275.519 80.05" xmlns="http://www.w3.org/2000/svg">
    <g id="svgGroup" stroke-linecap="round" fill-rule="evenodd" font-size="9pt" stroke="#ffffff" stroke-width="0.25mm"
        fill="#ffffff" style="stroke:#ffffff;stroke-width:0.25mm;fill:#ffffff">
        <path
            d="M 14.455 40.382 L 1.369 37.306 L 5.715 0.978 L 47.268 0.978 L 47.268 13.771 L 19.094 13.771 L 17.483 27.882 A 13.582 13.582 0 0 1 18.955 27.148 Q 19.761 26.801 20.717 26.488 A 29.308 29.308 0 0 1 22.097 26.076 A 21.718 21.718 0 0 1 26.442 25.334 A 19.468 19.468 0 0 1 27.688 25.294 A 28.617 28.617 0 0 1 34.253 26.002 Q 40.194 27.402 43.972 31.569 A 20.65 20.65 0 0 1 48.452 39.802 Q 49.66 43.95 49.66 49.171 Q 49.66 56.007 46.608 61.549 A 20.975 20.975 0 0 1 38.039 70.07 Q 32.522 73.048 25.002 73.048 A 29.091 29.091 0 0 1 12.453 70.289 A 24.353 24.353 0 0 1 6.666 66.538 A 20.96 20.96 0 0 1 3.274 62.721 A 18.374 18.374 0 0 1 0.001 52.032 A 21.732 21.732 0 0 1 0.002 51.857 L 16.506 51.857 A 11.936 11.936 0 0 0 16.971 54.56 A 8.356 8.356 0 0 0 18.996 58.058 A 7.527 7.527 0 0 0 23.528 60.265 A 10.484 10.484 0 0 0 24.904 60.353 A 7.71 7.71 0 0 0 29.181 59.218 Q 32.232 57.245 32.97 51.843 A 28.16 28.16 0 0 0 33.205 48.048 Q 33.205 38.311 25.766 36.908 A 14.667 14.667 0 0 0 23.049 36.671 A 14.162 14.162 0 0 0 19.658 37.052 A 9.048 9.048 0 0 0 14.455 40.382 Z"
            id="0" vector-effect="non-scaling-stroke" />
        <path
            d="M 107.668 30.079 L 107.668 43.019 Q 107.668 52.987 104.57 59.798 A 24.149 24.149 0 0 1 101.198 65.236 A 21.076 21.076 0 0 1 87.69 72.701 A 30.915 30.915 0 0 1 82.961 73.048 A 28.636 28.636 0 0 1 75.204 72.055 A 20.674 20.674 0 0 1 64.602 65.187 Q 58.108 57.326 58.108 43.019 L 58.108 30.031 Q 58.108 20.063 61.206 13.251 A 24.149 24.149 0 0 1 64.577 7.814 A 21.062 21.062 0 0 1 77.95 0.375 A 30.996 30.996 0 0 1 82.863 0.001 A 28.386 28.386 0 0 1 90.664 1.015 A 20.667 20.667 0 0 1 101.174 7.863 A 25.993 25.993 0 0 1 105.889 16.83 Q 107.056 20.594 107.458 25.124 A 56.184 56.184 0 0 1 107.668 30.079 Z M 91.213 45.509 L 91.213 27.931 Q 91.213 21.134 89.639 17.389 A 11.31 11.31 0 0 0 89.211 16.481 A 7.454 7.454 0 0 0 87.425 14.212 Q 85.925 12.957 83.781 12.741 A 9.165 9.165 0 0 0 82.863 12.697 A 8.007 8.007 0 0 0 80.271 13.093 Q 77.967 13.878 76.687 16.212 A 13.077 13.077 0 0 0 75.613 18.908 Q 74.71 22.067 74.611 26.857 L 74.611 45.021 Q 74.611 52.98 76.613 56.666 A 7.215 7.215 0 0 0 78.535 58.984 Q 80.313 60.353 82.961 60.353 A 7.682 7.682 0 0 0 85.689 59.892 Q 87.878 59.067 89.162 56.764 A 12.455 12.455 0 0 0 90.223 54.123 Q 91.007 51.384 91.171 47.351 A 53.727 53.727 0 0 0 91.213 45.509 Z"
            id="1" vector-effect="non-scaling-stroke" />
        <path
            d="M 126.711 56.105 Q 130.617 56.105 133.205 58.424 A 7.544 7.544 0 0 1 135.783 63.91 A 9.763 9.763 0 0 1 135.793 64.357 A 8.221 8.221 0 0 1 135.224 67.46 A 7.588 7.588 0 0 1 133.205 70.289 A 9.01 9.01 0 0 1 128.072 72.534 A 12.059 12.059 0 0 1 126.711 72.609 A 10.933 10.933 0 0 1 123.628 72.194 A 8.608 8.608 0 0 1 120.192 70.265 A 7.617 7.617 0 0 1 117.636 64.716 A 9.662 9.662 0 0 1 117.629 64.357 A 8.102 8.102 0 0 1 118.27 61.098 A 7.759 7.759 0 0 1 120.192 58.449 A 8.851 8.851 0 0 1 125.133 56.205 A 12.025 12.025 0 0 1 126.711 56.105 Z M 126.711 17.14 Q 130.617 17.14 133.205 19.459 A 7.544 7.544 0 0 1 135.783 24.945 A 9.763 9.763 0 0 1 135.793 25.392 A 8.221 8.221 0 0 1 135.224 28.495 A 7.588 7.588 0 0 1 133.205 31.325 A 9.01 9.01 0 0 1 128.072 33.569 A 12.059 12.059 0 0 1 126.711 33.644 A 10.933 10.933 0 0 1 123.628 33.229 A 8.608 8.608 0 0 1 120.192 31.3 A 7.617 7.617 0 0 1 117.636 25.751 A 9.662 9.662 0 0 1 117.629 25.392 A 8.102 8.102 0 0 1 118.27 22.133 A 7.759 7.759 0 0 1 120.192 19.484 A 8.851 8.851 0 0 1 125.133 17.24 A 12.025 12.025 0 0 1 126.711 17.14 Z"
            id="2" vector-effect="non-scaling-stroke" />
        <path
            d="M 160.305 40.382 L 147.219 37.306 L 151.565 0.978 L 193.117 0.978 L 193.117 13.771 L 164.943 13.771 L 163.332 27.882 A 13.582 13.582 0 0 1 164.805 27.148 Q 165.61 26.801 166.567 26.488 A 29.308 29.308 0 0 1 167.946 26.076 A 21.718 21.718 0 0 1 172.292 25.334 A 19.468 19.468 0 0 1 173.537 25.294 A 28.617 28.617 0 0 1 180.102 26.002 Q 186.044 27.402 189.821 31.569 A 20.65 20.65 0 0 1 194.301 39.802 Q 195.51 43.95 195.51 49.171 Q 195.51 56.007 192.458 61.549 A 20.975 20.975 0 0 1 183.889 70.07 Q 178.371 73.048 170.852 73.048 A 29.091 29.091 0 0 1 158.303 70.289 A 24.353 24.353 0 0 1 152.515 66.538 A 20.96 20.96 0 0 1 149.123 62.721 A 18.374 18.374 0 0 1 145.851 52.032 A 21.732 21.732 0 0 1 145.852 51.857 L 162.356 51.857 A 11.936 11.936 0 0 0 162.82 54.56 A 8.356 8.356 0 0 0 164.846 58.058 A 7.527 7.527 0 0 0 169.377 60.265 A 10.484 10.484 0 0 0 170.754 60.353 A 7.71 7.71 0 0 0 175.03 59.218 Q 178.082 57.245 178.819 51.843 A 28.16 28.16 0 0 0 179.055 48.048 Q 179.055 38.311 171.615 36.908 A 14.667 14.667 0 0 0 168.899 36.671 A 14.162 14.162 0 0 0 165.508 37.052 A 9.048 9.048 0 0 0 160.305 40.382 Z"
            id="3" vector-effect="non-scaling-stroke" />
        <path
            d="M 253.518 30.079 L 253.518 43.019 Q 253.518 52.987 250.419 59.798 A 24.149 24.149 0 0 1 247.048 65.236 A 21.076 21.076 0 0 1 233.539 72.701 A 30.915 30.915 0 0 1 228.811 73.048 A 28.636 28.636 0 0 1 221.054 72.055 A 20.674 20.674 0 0 1 210.451 65.187 Q 203.957 57.326 203.957 43.019 L 203.957 30.031 Q 203.957 20.063 207.055 13.251 A 24.149 24.149 0 0 1 210.427 7.814 A 21.062 21.062 0 0 1 223.799 0.375 A 30.996 30.996 0 0 1 228.713 0.001 A 28.386 28.386 0 0 1 236.514 1.015 A 20.667 20.667 0 0 1 247.024 7.863 A 25.993 25.993 0 0 1 251.738 16.83 Q 252.906 20.594 253.307 25.124 A 56.184 56.184 0 0 1 253.518 30.079 Z M 237.063 45.509 L 237.063 27.931 Q 237.063 21.134 235.489 17.389 A 11.31 11.31 0 0 0 235.061 16.481 A 7.454 7.454 0 0 0 233.274 14.212 Q 231.774 12.957 229.631 12.741 A 9.165 9.165 0 0 0 228.713 12.697 A 8.007 8.007 0 0 0 226.121 13.093 Q 223.817 13.878 222.536 16.212 A 13.077 13.077 0 0 0 221.462 18.908 Q 220.559 22.067 220.461 26.857 L 220.461 45.021 Q 220.461 52.98 222.463 56.666 A 7.215 7.215 0 0 0 224.385 58.984 Q 226.162 60.353 228.811 60.353 A 7.682 7.682 0 0 0 231.538 59.892 Q 233.727 59.067 235.012 56.764 A 12.455 12.455 0 0 0 236.072 54.123 Q 236.856 51.384 237.02 47.351 A 53.727 53.727 0 0 0 237.063 45.509 Z"
            id="4" vector-effect="non-scaling-stroke" />
    </g>
</svg>